<svg width="340" height="160" viewBox="0 0 340 160" xmlns="http://www.w3.org/2000/svg">
  <defs>
    <linearGradient id="borderGrad" x1="0%" y1="0%" x2="100%" y2="100%">
      <stop offset="0%" stop-color="#ec4899"/>
      <stop offset="100%" stop-color="#a855f7"/>
    </linearGradient>
    <linearGradient id="barGrad" x1="0%" y1="0%" x2="0%" y2="100%">
      <stop offset="0%" stop-color="#ec4899"/>
      <stop offset="100%" stop-color="#a855f7"/>
    </linearGradient>
  </defs>

  <rect width="340" height="160" rx="12" fill="url(#borderGrad)"/>
  <rect x="1.5" y="1.5" width="337" height="157" rx="11" fill="#0d1117"/>
  <ellipse cx="300" cy="130" rx="80" ry="45" fill="#a855f7" fill-opacity="0.04"/>

  <!-- BULLET 1 -->
  <rect x="18" y="10" width="304" height="30" rx="6" fill="#ec489907"/>
  <rect x="18" y="10" width="3" height="30" rx="1.5" fill="url(#barGrad)"/>
  <text y="30" font-family="'Segoe UI',system-ui,sans-serif" font-size="12" xml:space="preserve"><tspan x="30" fill="#888">Desktop apps with </tspan><tspan fill="#ec4899" font-weight="600">Tauri</tspan></text>

  <!-- BULLET 2 -->
  <rect x="18" y="46" width="304" height="30" rx="6" fill="#a855f707"/>
  <rect x="18" y="46" width="3" height="30" rx="1.5" fill="url(#barGrad)"/>
  <text y="66" font-family="'Segoe UI',system-ui,sans-serif" font-size="12" xml:space="preserve"><tspan x="30" fill="#888">Passionate about </tspan><tspan fill="#a855f7" font-weight="600">security &amp; encryption</tspan></text>

  <!-- BULLET 3 -->
  <rect x="18" y="82" width="304" height="30" rx="6" fill="#ec489907"/>
  <rect x="18" y="82" width="3" height="30" rx="1.5" fill="url(#barGrad)"/>
  <text y="102" font-family="'Segoe UI',system-ui,sans-serif" font-size="12" xml:space="preserve"><tspan x="30" fill="#888">Experimenting with </tspan><tspan fill="#ec4899" font-weight="600">AI &amp; voice assistants</tspan></text>

  <!-- BULLET 4 -->
  <rect x="18" y="118" width="304" height="30" rx="6" fill="#a855f707"/>
  <rect x="18" y="118" width="3" height="30" rx="1.5" fill="url(#barGrad)"/>
  <text y="138" font-family="'Segoe UI',system-ui,sans-serif" font-size="12" xml:space="preserve"><tspan x="30" fill="#888">Always learning </tspan><tspan fill="#a855f7" font-weight="600">emerging technologies</tspan></text>

</svg>
